<?xml version="1.0" encoding="UTF-8" standalone="no"?>
<svg
   xmlns:dc="http://purl.org/dc/elements/1.1/"
   xmlns:cc="http://creativecommons.org/ns#"
   xmlns:rdf="http://www.w3.org/1999/02/22-rdf-syntax-ns#"
   xmlns:svg="http://www.w3.org/2000/svg"
   xmlns="http://www.w3.org/2000/svg"
   xmlns:sodipodi="http://sodipodi.sourceforge.net/DTD/sodipodi-0.dtd"
   xmlns:inkscape="http://www.inkscape.org/namespaces/inkscape"
   height="384pt"
   viewBox="0 -21 384 384"
   width="384pt"
   version="1.1"
   id="svg10"
   sodipodi:docname="menuBrgr.svg"
   inkscape:version="0.92.4 (fd57863, 2020-04-02)">
  <metadata
     id="metadata16">
    <rdf:RDF>
      <cc:Work
         rdf:about="">
        <dc:format>image/svg+xml</dc:format>
        <dc:type
           rdf:resource="http://purl.org/dc/dcmitype/StillImage" />
        <dc:title></dc:title>
      </cc:Work>
    </rdf:RDF>
  </metadata>
  <defs
     id="defs14" />
  <sodipodi:namedview
     pagecolor="#ffffff"
     bordercolor="#666666"
     borderopacity="1"
     objecttolerance="10"
     gridtolerance="10"
     guidetolerance="10"
     inkscape:pageopacity="0"
     inkscape:pageshadow="2"
     inkscape:window-width="993"
     inkscape:window-height="765"
     id="namedview12"
     showgrid="false"
     inkscape:zoom="0.4609375"
     inkscape:cx="-95.457627"
     inkscape:cy="256"
     inkscape:window-x="0"
     inkscape:window-y="0"
     inkscape:window-maximized="0"
     inkscape:current-layer="svg10" />
  <g
     fill="#607d8b"
     id="g8"
     style="fill:#00bcd4;fill-opacity:1">
    <path
       d="m352 0h-320c-17.664062 0-32 14.335938-32 32v21.332031c0 17.664063 14.335938 32 32 32h320c17.664062 0 32-14.335937 32-32v-21.332031c0-17.664062-14.335938-32-32-32zm0 0"
       id="path2"
       style="fill:#00bcd4;fill-opacity:1" />
    <path
       d="m352 128h-320c-17.664062 0-32 14.335938-32 32v21.332031c0 17.664063 14.335938 32 32 32h320c17.664062 0 32-14.335937 32-32v-21.332031c0-17.664062-14.335938-32-32-32zm0 0"
       id="path4"
       style="fill:#00bcd4;fill-opacity:1" />
    <path
       d="m352 256h-320c-17.664062 0-32 14.335938-32 32v21.332031c0 17.664063 14.335938 32 32 32h320c17.664062 0 32-14.335937 32-32v-21.332031c0-17.664062-14.335938-32-32-32zm0 0"
       id="path6"
       style="fill:#00bcd4;fill-opacity:1" />
  </g>
</svg>
