<?xml version="1.0" encoding="UTF-8" standalone="no"?>
<!-- Generator: Adobe Illustrator 18.0.0, SVG Export Plug-In . SVG Version: 6.00 Build 0)  -->

<svg
   xmlns:dc="http://purl.org/dc/elements/1.1/"
   xmlns:cc="http://creativecommons.org/ns#"
   xmlns:rdf="http://www.w3.org/1999/02/22-rdf-syntax-ns#"
   xmlns:svg="http://www.w3.org/2000/svg"
   xmlns="http://www.w3.org/2000/svg"
   xmlns:sodipodi="http://sodipodi.sourceforge.net/DTD/sodipodi-0.dtd"
   xmlns:inkscape="http://www.inkscape.org/namespaces/inkscape"
   version="1.1"
   id="Capa_1"
   x="0px"
   y="0px"
   viewBox="0 0 317.235 317.235"
   style="enable-background:new 0 0 317.235 317.235;"
   xml:space="preserve"
   sodipodi:docname="high-five.svg"
   inkscape:version="0.92.4 (fd57863, 2020-04-02)"><metadata
   id="metadata41"><rdf:RDF><cc:Work
       rdf:about=""><dc:format>image/svg+xml</dc:format><dc:type
         rdf:resource="http://purl.org/dc/dcmitype/StillImage" /></cc:Work></rdf:RDF></metadata><defs
   id="defs39" /><sodipodi:namedview
   pagecolor="#ffffff"
   bordercolor="#666666"
   borderopacity="1"
   objecttolerance="10"
   gridtolerance="10"
   guidetolerance="10"
   inkscape:pageopacity="0"
   inkscape:pageshadow="2"
   inkscape:window-width="640"
   inkscape:window-height="785"
   id="namedview37"
   showgrid="false"
   inkscape:zoom="1.0520731"
   inkscape:cx="141.89253"
   inkscape:cy="126.87692"
   inkscape:window-x="1219"
   inkscape:window-y="124"
   inkscape:window-maximized="0"
   inkscape:current-layer="Capa_1" />
<g
   id="g4"
   transform="translate(22)">
	<path
   d="m 277.227,141.571 c -0.942,-7.235 -4.646,-13.67 -10.428,-18.12 -5.782,-4.45 -12.952,-6.38 -20.186,-5.439 -7.235,0.942 -13.67,4.646 -18.125,10.435 l -12.192,15.884 V 44.556 c 0,-15.062 -12.253,-27.315 -27.315,-27.315 -5.127,0 -9.927,1.422 -14.03,3.889 C 172.139,9.039 161.284,0 148.351,0 c -12.934,0 -23.789,9.039 -26.6,21.129 -4.104,-2.467 -8.903,-3.889 -14.03,-3.889 -15.062,0 -27.315,12.253 -27.315,27.315 v 16.829 c -3.943,-2.211 -8.483,-3.478 -13.315,-3.478 -15.062,0 -27.315,12.253 -27.315,27.315 v 118.925 c 0,26.744 11.959,50.745 30.807,66.944 0,0.014 -0.002,0.028 -0.002,0.042 v 39.103 c 0,3.866 3.134,7 7,7 h 103 c 3.866,0 7,-3.134 7,-7 v -39.103 c 0,-0.571 -0.076,-1.123 -0.205,-1.654 2.86,-2.6 5.569,-5.398 8.099,-8.392 0.07,-0.083 0.138,-0.168 0.205,-0.254 l 76.108,-99.076 c 4.449,-5.781 6.381,-12.95 5.439,-20.185 z M 173.581,303.235 h -89 v -22.291 c 12.836,7.292 27.667,11.463 43.455,11.463 16.262,0 31.955,-4.453 45.545,-12.646 z m 87.108,-150.011 -76.011,98.949 c -14.153,16.675 -34.789,26.235 -56.643,26.235 -40.947,0 -74.26,-33.313 -74.26,-74.26 V 85.222 c 0,-7.342 5.973,-13.315 13.315,-13.315 7.342,0 13.315,5.973 13.315,13.315 v 60.981 c 0,3.866 3.134,7 7,7 3.866,0 7,-3.134 7,-7 V 44.556 c 0,-7.342 5.973,-13.315 13.315,-13.315 7.342,0 13.315,5.973 13.315,13.315 v 101.648 c 0,3.866 3.134,7 7,7 3.866,0 7,-3.134 7,-7 V 27.315 c 0,-7.342 5.973,-13.315 13.315,-13.315 7.342,0 13.315,5.973 13.315,13.315 v 118.888 c 0,3.866 3.134,7 7,7 3.866,0 7,-3.134 7,-7 V 44.556 c 0,-7.342 5.973,-13.315 13.315,-13.315 7.342,0 13.315,5.973 13.315,13.315 v 120.39 c 0,2.999 1.91,5.664 4.75,6.628 2.837,0.963 5.977,0.013 7.803,-2.366 l 24.74,-32.23 c 2.169,-2.818 5.306,-4.624 8.833,-5.083 3.526,-0.462 7.021,0.482 9.84,2.651 2.818,2.169 4.624,5.306 5.083,8.833 0.459,3.527 -0.482,7.021 -2.655,9.845 z"
   id="path2"
   inkscape:connector-curvature="0" />
</g>
<g
   id="g6">
</g>
<g
   id="g8">
</g>
<g
   id="g10">
</g>
<g
   id="g12">
</g>
<g
   id="g14">
</g>
<g
   id="g16">
</g>
<g
   id="g18">
</g>
<g
   id="g20">
</g>
<g
   id="g22">
</g>
<g
   id="g24">
</g>
<g
   id="g26">
</g>
<g
   id="g28">
</g>
<g
   id="g30">
</g>
<g
   id="g32">
</g>
<g
   id="g34">
</g>
</svg>