<?xml version="1.0" encoding="UTF-8" standalone="no"?>
<!-- Generator: Adobe Illustrator 18.0.0, SVG Export Plug-In . SVG Version: 6.00 Build 0)  -->

<svg
   xmlns:dc="http://purl.org/dc/elements/1.1/"
   xmlns:cc="http://creativecommons.org/ns#"
   xmlns:rdf="http://www.w3.org/1999/02/22-rdf-syntax-ns#"
   xmlns:svg="http://www.w3.org/2000/svg"
   xmlns="http://www.w3.org/2000/svg"
   xmlns:sodipodi="http://sodipodi.sourceforge.net/DTD/sodipodi-0.dtd"
   xmlns:inkscape="http://www.inkscape.org/namespaces/inkscape"
   version="1.1"
   id="Capa_1"
   x="0px"
   y="0px"
   viewBox="0 0 253.859 253.859"
   style="enable-background:new 0 0 253.859 253.859;"
   xml:space="preserve"
   sodipodi:docname="sign-lenguage-a.svg"
   inkscape:version="0.92.4 (fd57863, 2020-04-02)"><metadata
   id="metadata41"><rdf:RDF><cc:Work
       rdf:about=""><dc:format>image/svg+xml</dc:format><dc:type
         rdf:resource="http://purl.org/dc/dcmitype/StillImage" /><dc:title></dc:title></cc:Work></rdf:RDF></metadata><defs
   id="defs39" /><sodipodi:namedview
   pagecolor="#ffffff"
   bordercolor="#666666"
   borderopacity="1"
   objecttolerance="10"
   gridtolerance="10"
   guidetolerance="10"
   inkscape:pageopacity="0"
   inkscape:pageshadow="2"
   inkscape:window-width="1133"
   inkscape:window-height="930"
   id="namedview37"
   showgrid="false"
   inkscape:zoom="1.3147236"
   inkscape:cx="51.217945"
   inkscape:cy="136.14867"
   inkscape:window-x="0"
   inkscape:window-y="0"
   inkscape:window-maximized="0"
   inkscape:current-layer="Capa_1" />
<g
   id="g4"
   transform="matrix(0.80508475,0,0,0.80508475,24.732373,49.48099)">
	<path
   d="m 190.972,11 c -6.33,0 -12.181,2.086 -16.904,5.606 C 169.595,6.82 159.721,0 148.277,0 139.769,0 132.13,3.773 126.929,9.728 121.729,3.773 114.09,0 105.582,0 94.138,0 84.264,6.82 79.792,16.606 75.068,13.086 69.217,11 62.888,11 47.257,11 34.54,23.717 34.54,39.348 v 31.634 65.796 c 0,28.926 13.367,54.786 34.243,71.739 v 38.342 c 0,3.866 3.134,7 7,7 h 102.293 c 3.866,0 7,-3.134 7,-7 v -38.342 c 20.876,-16.953 34.243,-42.813 34.243,-71.739 V 39.348 C 219.319,23.717 206.603,11 190.972,11 Z m 0,14 c 7.911,0 14.348,6.437 14.348,14.348 v 63.715 L 176.625,92.842 V 80.865 39.348 C 176.624,31.437 183.061,25 190.972,25 Z M 148.277,14 c 7.911,0 14.347,6.437 14.347,14.348 v 11 41.518 c 0,2.282 -0.531,4.464 -1.533,6.443 l -23.487,-8.366 c -1.217,-0.433 -2.444,-0.77 -3.675,-1.029 V 28.348 C 133.93,20.437 140.366,14 148.277,14 Z M 91.235,28.348 C 91.235,20.437 97.671,14 105.582,14 c 7.911,0 14.348,6.437 14.348,14.348 v 50.169 c -7.877,2.381 -14.631,8.14 -17.994,16.208 -6.147,-1.62 -10.7,-7.211 -10.7,-13.86 v -9.883 -31.634 -11 z m -42.695,11 C 48.54,31.437 54.977,25 62.888,25 c 7.911,0 14.348,6.437 14.348,14.348 v 31.634 c 0,7.911 -6.437,14.347 -14.348,14.347 -7.911,0 -14.348,-6.436 -14.348,-14.347 z M 171.076,239.859 H 82.783 v -21.94 c 13.124,7.169 28.168,11.248 44.146,11.248 15.978,0 31.022,-4.079 44.146,-11.248 v 21.94 z M 126.93,215.167 c -43.225,0 -78.39,-35.165 -78.39,-78.389 V 95.415 c 4.212,2.483 9.115,3.914 14.348,3.914 6.505,0 12.501,-2.208 17.29,-5.906 3.827,7.71 11.056,13.445 19.715,15.216 0.335,3.138 1.198,6.23 2.591,9.165 3.247,6.84 8.964,12.007 16.097,14.547 l 41.947,14.941 c 0.776,0.276 1.568,0.408 2.349,0.408 2.877,0 5.573,-1.788 6.594,-4.653 1.298,-3.642 -0.604,-7.646 -4.245,-8.943 l -41.947,-14.941 c -7.452,-2.654 -11.355,-10.877 -8.701,-18.33 2.654,-7.453 10.878,-11.354 18.33,-8.702 l 72.412,25.793 v 18.854 c -0.001,43.224 -35.166,78.389 -78.39,78.389 z"
   id="path2"
   inkscape:connector-curvature="0" />
</g>
<g
   id="g6">
</g>
<g
   id="g8">
</g>
<g
   id="g10">
</g>
<g
   id="g12">
</g>
<g
   id="g14">
</g>
<g
   id="g16">
</g>
<g
   id="g18">
</g>
<g
   id="g20">
</g>
<g
   id="g22">
</g>
<g
   id="g24">
</g>
<g
   id="g26">
</g>
<g
   id="g28">
</g>
<g
   id="g30">
</g>
<g
   id="g32">
</g>
<g
   id="g34">
</g>
</svg>