<?xml version="1.0" encoding="UTF-8" standalone="no"?>
<svg
   xmlns:dc="http://purl.org/dc/elements/1.1/"
   xmlns:cc="http://creativecommons.org/ns#"
   xmlns:rdf="http://www.w3.org/1999/02/22-rdf-syntax-ns#"
   xmlns:svg="http://www.w3.org/2000/svg"
   xmlns="http://www.w3.org/2000/svg"
   xmlns:sodipodi="http://sodipodi.sourceforge.net/DTD/sodipodi-0.dtd"
   xmlns:inkscape="http://www.inkscape.org/namespaces/inkscape"
   inkscape:version="1.0 (5b275a35d9, 2020-05-03)"
   sodipodi:docname="tomato.svg"
   xml:space="preserve"
   style="enable-background:new 0 0 512.001 512.001;"
   viewBox="0 0 512.001 512.001"
   y="0px"
   x="0px"
   id="Capa_1"
   version="1.1"><metadata
   id="metadata49"><rdf:RDF><cc:Work
       rdf:about=""><dc:format>image/svg+xml</dc:format><dc:type
         rdf:resource="http://purl.org/dc/dcmitype/StillImage" /></cc:Work></rdf:RDF></metadata><defs
   id="defs47" /><sodipodi:namedview
   inkscape:current-layer="Capa_1"
   inkscape:window-maximized="0"
   inkscape:window-y="0"
   inkscape:window-x="0"
   inkscape:cy="256.00049"
   inkscape:cx="256.00049"
   inkscape:zoom="1.3867161"
   showgrid="false"
   id="namedview45"
   inkscape:window-height="1017"
   inkscape:window-width="1287"
   inkscape:pageshadow="2"
   inkscape:pageopacity="0"
   guidetolerance="10"
   gridtolerance="10"
   objecttolerance="10"
   borderopacity="1"
   bordercolor="#666666"
   pagecolor="#ffffff" />
<path
   id="path2"
   d="M277.863,63.893c-1.971-17.491-0.136-34.872,1.381-44.858c0.532-3.503-3.351-5.971-6.348-4.082  c-21.37,13.467-31.453,31.536-36.262,47.908l20.657,21.935L277.863,63.893z"
   style="fill:#B4E66E;" />
<path
   id="path4"
   d="M358.859,48.64c-43.527-8.55-72.843,3.368-92.839,20.896c-1.538,1.348-3.945,0.806-4.616-1.125  c-3.06-8.803-7.685-31.309,13.511-54.022c-0.678,0.034-1.37,0.156-2.019,0.565c-20.512,12.926-30.568,30.078-35.599,45.913  c-19.31-12.416-45.493-19.271-81.348-12.215c-3.524,0.693-3.625,5.699-0.154,6.62c17.154,4.551,44.63,15.834,59.201,42.944h84.876  c14.564-27.095,42.017-38.38,59.172-42.936C362.518,54.357,362.387,49.333,358.859,48.64z"
   style="fill:#A0D755;" />
<path
   id="path6"
   d="M153.563,52.798c48.404-2.571,76.102,22.59,92.417,47.035l-30.984-1.616  c-14.556-27.082-41.99-38.368-59.148-42.929C154.492,54.926,153.842,53.903,153.563,52.798z"
   style="fill:#87BE4B;" />
<path
   id="path8"
   d="M361.304,52.798c-48.404-2.571-76.102,22.59-92.417,47.035l30.984-1.616  c14.556-27.082,41.99-38.368,59.148-42.929C360.374,54.926,361.025,53.903,361.304,52.798z"
   style="fill:#B4E66E;" />
<path
   id="path10"
   d="M334.357,94.122c-14.18-1.471-28.087-1.396-41.588,0.066c-24.475,2.651-49.062,2.651-73.537,0  c-13.501-1.462-27.408-1.537-41.588-0.066c-95.89,9.947-171.683,91.406-177.31,189.63C-6.368,400.766,87.979,497.7,256,497.7  s262.368-96.934,255.666-213.948C506.039,185.528,430.246,104.069,334.357,94.122z"
   style="fill:#FF6E64;" />

<g
   id="g14">
</g>
<g
   id="g16">
</g>
<g
   id="g18">
</g>
<g
   id="g20">
</g>
<g
   id="g22">
</g>
<g
   id="g24">
</g>
<g
   id="g26">
</g>
<g
   id="g28">
</g>
<g
   id="g30">
</g>
<g
   id="g32">
</g>
<g
   id="g34">
</g>
<g
   id="g36">
</g>
<g
   id="g38">
</g>
<g
   id="g40">
</g>
<g
   id="g42">
</g>
</svg>
